<svg data-v-423bf9ae="" xmlns="http://www.w3.org/2000/svg" viewBox="0 0 106.63365254038999 60" class="font"><!----><!----><!----><g data-v-423bf9ae="" id="4dfafca0-0b3f-4eb8-8bec-030760fc7a36" fill="white" transform="matrix(5.940593835033989,0,0,5.940593835033989,-4.158415838388237,-18.950494196844772)"><path d="M1.99 9.84L1.99 6.64L1.99 6.64Q1.99 5.24 2.42 4.47L2.42 4.47L2.42 4.47Q2.86 3.71 3.79 3.71L3.79 3.71L3.79 3.71Q4.26 3.71 4.71 3.81L4.71 3.81L4.71 3.81Q5.17 3.92 5.56 4.12L5.56 4.12L5.56 4.12Q5.95 4.31 6.27 4.61L6.27 4.61L6.27 4.61Q6.58 4.91 6.75 5.31L6.75 5.31L6.75 6.13L7.29 6.13L7.29 3.40L6.90 3.40L6.90 3.40Q6.90 3.57 6.78 3.67L6.78 3.67L6.78 3.67Q6.71 3.71 6.65 3.71L6.65 3.71L6.65 3.71Q6.57 3.71 6.44 3.63L6.44 3.63L6.44 3.63Q5.98 3.53 5.35 3.36L5.35 3.36L5.35 3.36Q4.72 3.19 3.77 3.19L3.77 3.19L3.77 3.19Q3.08 3.19 2.51 3.44L2.51 3.44L2.51 3.44Q1.95 3.68 1.55 4.13L1.55 4.13L1.55 4.13Q1.15 4.58 0.92 5.20L0.92 5.20L0.92 5.20Q0.70 5.82 0.70 6.58L0.70 6.58L0.70 9.90L0.70 9.90Q0.70 10.65 0.92 11.28L0.92 11.28L0.92 11.28Q1.13 11.90 1.53 12.35L1.53 12.35L1.53 12.35Q1.93 12.80 2.48 13.04L2.48 13.04L2.48 13.04Q3.04 13.29 3.71 13.29L3.71 13.29L3.71 13.29Q4.59 13.29 5.26 13.18L5.26 13.18L5.26 13.18Q5.92 13.08 6.62 12.84L6.62 12.84L6.62 12.84Q6.78 12.73 6.86 12.73L6.86 12.73L6.92 12.74L6.92 12.74Q7.01 12.78 7.08 13.08L7.08 13.08L7.32 13.08L7.31 10.19L6.75 10.19L6.75 11.02L6.75 11.02Q6.58 11.47 6.28 11.79L6.28 11.79L6.28 11.79Q5.98 12.12 5.59 12.34L5.59 12.34L5.59 12.34Q5.21 12.56 4.75 12.66L4.75 12.66L4.75 12.66Q4.30 12.77 3.82 12.77L3.82 12.77L3.82 12.77Q2.84 12.77 2.42 12.03L2.42 12.03L2.42 12.03Q1.99 11.28 1.99 9.84L1.99 9.84ZM12.32 10.23L12.32 12.15L12.32 12.15Q12.08 12.38 11.66 12.53L11.66 12.53L11.66 12.53Q11.23 12.68 10.51 12.68L10.51 12.68L10.51 12.68Q10.02 12.68 9.87 12.47L9.87 12.47L9.87 12.47Q9.72 12.26 9.72 11.79L9.72 11.79L9.72 11.28L9.72 11.28Q9.72 10.74 9.98 10.50L9.98 10.50L9.98 10.50Q10.25 10.26 10.96 10.25L10.96 10.25L12.32 10.23ZM12.33 12.82L12.33 12.82L12.33 12.82Q12.38 12.98 12.53 13.12L12.53 13.12L12.53 13.12Q12.68 13.26 12.95 13.26L12.95 13.26L12.95 13.26Q13.40 13.26 13.77 13.15L13.77 13.15L13.77 13.15Q14.14 13.05 14.43 12.88L14.43 12.88L14.36 12.42L14.36 12.42Q14.24 12.49 14 12.60L14 12.60L14 12.60Q13.76 12.71 13.58 12.71L13.58 12.71L13.58 12.71Q13.44 12.71 13.41 12.59L13.41 12.59L13.41 12.59Q13.37 12.47 13.37 12.19L13.37 12.19L13.37 8.39L13.37 8.39Q13.37 7.67 12.89 7.32L12.89 7.32L12.89 7.32Q12.42 6.97 11.54 6.97L11.54 6.97L10.58 6.97L10.58 6.97Q9.79 6.97 9.37 7.29L9.37 7.29L9.37 7.29Q8.96 7.60 8.96 8.19L8.96 8.19L8.96 8.64L8.96 8.64Q9.06 8.99 9.49 9.02L9.49 9.02L9.49 9.02Q9.87 9.02 10.02 8.72L10.02 8.72L10.02 8.72Q10.02 8.47 9.91 8.33L9.91 8.33L9.91 8.33Q9.80 8.19 9.79 8.04L9.79 8.04L9.79 8.04Q9.79 7.74 10.04 7.61L10.04 7.61L10.04 7.61Q10.29 7.48 10.72 7.48L10.72 7.48L11.42 7.48L11.42 7.48Q11.87 7.48 12.10 7.61L12.10 7.61L12.10 7.61Q12.32 7.74 12.32 8.18L12.32 8.18L12.32 9.77L10.84 9.79L10.84 9.79Q9.74 9.80 9.18 10.15L9.18 10.15L9.18 10.15Q8.62 10.50 8.62 11.17L8.62 11.17L8.62 12.04L8.62 12.04Q8.62 12.63 8.94 12.94L8.94 12.94L8.94 12.94Q9.25 13.26 9.93 13.26L9.93 13.26L9.93 13.26Q10.56 13.26 11.18 13.17L11.18 13.17L11.18 13.17Q11.80 13.09 12.33 12.82ZM16.44 4.97L16.44 4.97L16.44 4.97Q16.44 5.25 16.63 5.45L16.63 5.45L16.63 5.45Q16.83 5.64 17.12 5.64L17.12 5.64L17.12 5.64Q17.42 5.64 17.61 5.45L17.61 5.45L17.61 5.45Q17.81 5.25 17.81 4.96L17.81 4.96L17.81 4.96Q17.81 4.68 17.61 4.48L17.61 4.48L17.61 4.48Q17.42 4.28 17.12 4.28L17.12 4.28L17.12 4.28Q16.83 4.28 16.63 4.48L16.63 4.48L16.63 4.48Q16.44 4.68 16.44 4.97ZM18.65 12.66L17.70 12.67L17.70 6.94L17.70 6.94Q17.53 7.04 17.35 7.08L17.35 7.08L17.35 7.08Q17.18 7.13 16.88 7.13L16.88 7.13L15.64 7.13L15.64 7.63L16.63 7.63L16.66 12.66L15.64 12.66L15.64 13.17L18.65 13.17L18.65 12.66Z"></path></g><!----><!----></svg>