<svg data-v-423bf9ae="" xmlns="http://www.w3.org/2000/svg" viewBox="0 0 99.77934442682066 60" class="font"><!----><!----><!----><g data-v-423bf9ae="" id="6172ee8a-f217-413f-800a-54f0f008640d" fill="white" transform="matrix(6.018054576957888,0,0,6.018054576957888,-5.897694964767901,-31.414244105919238)"><path d="M4.47 15.19C6.01 15.19 7.22 14.25 7.22 13.64C7.22 13.45 7.07 13.43 6.89 13.43C6.64 14.28 5.49 14.80 4.47 14.80C2.56 14.80 1.43 13.23 1.43 10.21C1.43 7.18 2.56 5.61 4.47 5.61C5.63 5.61 6.41 6.02 6.58 6.58C6.75 6.65 6.93 6.54 6.93 6.38C6.93 5.87 5.95 5.22 4.47 5.22C2.27 5.22 0.98 6.93 0.98 10.21C0.98 13.48 2.27 15.19 4.47 15.19ZM15.09 14.39C14.98 14.63 14.74 14.77 14.56 14.77C14.22 14.77 14.03 14.55 14.03 14.03L14.03 10.85C14.03 8.90 13.19 7.85 11.38 7.85C9.93 7.85 8.99 8.39 8.99 9.49C8.99 10.02 9.30 10.65 9.72 10.65C9.80 10.65 9.98 10.61 10.09 10.43C9.62 10.32 9.39 9.83 9.39 9.46C9.39 8.47 10.47 8.25 11.30 8.25C12.92 8.25 13.61 9.11 13.61 10.85L13.61 11.21C12.74 11.12 11.70 11.19 10.89 11.40C9.41 11.80 8.69 12.60 8.69 13.59C8.69 14.49 9.23 15.19 10.35 15.19C11.59 15.19 12.89 14.32 13.61 12.78L13.61 14C13.61 14.70 13.89 15.16 14.55 15.16C14.85 15.16 15.22 14.99 15.22 14.69C15.22 14.60 15.19 14.50 15.09 14.39ZM10.43 14.81C9.48 14.81 9.14 14.21 9.14 13.57C9.14 12.70 9.79 12.11 10.92 11.77C11.62 11.56 12.85 11.44 13.61 11.51C13.57 13.12 11.86 14.81 10.43 14.81ZM17.08 6.34C17.33 6.34 17.56 6.12 17.56 5.87C17.56 5.61 17.33 5.39 17.08 5.39C16.83 5.39 16.60 5.61 16.60 5.87C16.60 6.12 16.83 6.34 17.08 6.34ZM17.35 13.80L17.32 8.16C17.32 7.97 17.23 7.85 17.08 7.85C16.95 7.85 16.88 7.91 16.83 7.97C16.88 8.19 16.91 8.62 16.91 9.18L16.94 14.83C16.94 15.02 17.02 15.13 17.18 15.13C17.30 15.13 17.37 15.08 17.43 15.02C17.37 14.80 17.35 14.36 17.35 13.80Z"></path></g><!----><!----></svg>