<?xml version="1.0" standalone="no"?>
<!DOCTYPE svg PUBLIC "-//W3C//DTD SVG 20010904//EN"
 "http://www.w3.org/TR/2001/REC-SVG-20010904/DTD/svg10.dtd">
<svg version="1.0" xmlns="http://www.w3.org/2000/svg"
 width="700.000000pt" height="700.000000pt" viewBox="0 0 700.000000 700.000000"
 preserveAspectRatio="xMidYMid meet">
<metadata>
Created by potrace 1.14, written by Peter Selinger 2001-2017
</metadata>
<g transform="translate(0.000000,700.000000) scale(0.100000,-0.100000)"
fill="#000000" stroke="none">
<path d="M0 3500 l0 -3500 3500 0 3500 0 0 3500 0 3500 -3500 0 -3500 0 0
-3500z m4110 2536 c222 -39 464 -120 650 -218 541 -285 910 -748 1031 -1293
21 -95 22 -127 26 -628 l4 -529 32 -13 c38 -15 186 -39 347 -55 136 -14 195
-36 246 -92 54 -60 74 -111 74 -193 0 -56 -6 -82 -28 -130 -16 -33 -32 -71
-35 -85 -10 -40 -118 -199 -181 -267 -98 -106 -249 -183 -391 -201 l-60 -7 -6
-190 c-5 -186 -6 -192 -43 -300 -45 -133 -138 -314 -241 -471 -125 -188 -337
-465 -400 -521 -74 -66 -198 -127 -322 -159 l-96 -24 -1958 0 -1958 0 -20 26
c-13 17 -21 41 -21 67 0 39 6 47 153 196 373 378 559 642 640 906 21 69 21 80
27 1195 7 1246 4 1187 75 1466 180 702 654 1228 1300 1443 124 41 274 75 405
91 125 14 640 5 750 -14z"/>
<path d="M3450 5864 c-158 -19 -216 -29 -313 -53 -427 -108 -789 -369 -1037
-747 -61 -93 -167 -307 -205 -414 -36 -104 -72 -243 -97 -385 -21 -117 -22
-150 -28 -1240 -6 -1225 -2 -1133 -65 -1301 -83 -222 -289 -519 -525 -756
l-116 -118 1811 0 c1781 0 1813 0 1891 20 96 24 185 67 241 114 45 40 247 306
367 486 84 127 182 312 214 405 43 129 43 127 39 1345 -3 1038 -5 1173 -20
1238 -32 143 -69 249 -133 377 -229 465 -697 833 -1239 975 -161 42 -252 52
-505 55 -135 2 -261 1 -280 -1z m327 -1145 c88 -33 155 -115 199 -245 21 -62
28 -104 31 -194 8 -187 -36 -335 -128 -435 -55 -59 -91 -78 -154 -79 -120 -1
-221 112 -271 304 -23 87 -23 262 0 350 55 218 195 347 323 299z m1157 0 c128
-36 236 -252 236 -474 0 -381 -266 -613 -452 -396 -83 97 -122 224 -122 396 0
189 50 334 147 421 67 60 116 74 191 53z m-1853 -1504 c248 -152 501 -245 792
-294 167 -28 234 -70 283 -176 27 -56 32 -157 13 -216 -50 -147 -286 -382
-487 -483 -129 -65 -343 -116 -489 -116 -55 0 -67 4 -92 28 -43 39 -46 99 -6
136 21 19 40 24 117 30 189 14 328 57 464 141 147 92 314 285 314 362 0 50
-41 88 -105 97 -308 43 -626 156 -892 317 -104 63 -133 94 -133 145 0 35 5 47
31 68 17 14 42 26 57 26 15 0 73 -29 133 -65z"/>
<path d="M5820 2839 l0 -322 38 6 c20 4 70 23 111 43 134 66 307 256 322 353
4 25 12 60 20 77 10 26 10 37 0 62 -7 17 -21 34 -30 36 -9 3 -86 12 -171 21
-85 9 -183 23 -218 31 -35 8 -65 14 -68 14 -2 0 -4 -145 -4 -321z"/>
</g>
</svg>
