<svg 
 xmlns="http://www.w3.org/2000/svg"
 xmlns:xlink="http://www.w3.org/1999/xlink"
 width="14px" height="15px">
<path fill-rule="evenodd"  fill="#FF7F25"
 d="M11.421,14.999 L2.579,14.999 L-0.000,14.999 L-0.000,13.500 L1.842,13.500 L1.842,8.624 C1.842,5.725 4.151,3.375 7.000,3.375 C9.848,3.375 12.157,5.725 12.157,8.624 L12.157,13.500 L14.000,13.500 L14.000,14.999 L11.421,14.999 ZM8.011,7.242 L6.747,6.470 L4.593,10.124 L6.804,10.124 L5.989,11.507 L7.253,12.278 L9.406,8.624 L7.196,8.624 L8.011,7.242 ZM10.594,3.530 L12.157,1.939 L13.199,3.000 L11.636,4.591 L10.594,3.530 ZM6.263,-0.000 L7.737,-0.000 L7.737,2.250 L6.263,2.250 L6.263,-0.000 ZM0.800,3.000 L1.842,1.939 L3.405,3.530 L2.363,4.591 L0.800,3.000 Z"/>
</svg>
