<svg data-v-fde0c5aa="" xmlns="http://www.w3.org/2000/svg" viewBox="0 0 300 300" class="iconLeft"><!----><defs data-v-fde0c5aa=""><!----></defs><rect data-v-fde0c5aa="" fill="#F1E4E9" x="0" y="0" width="300px" height="300px" class="logo-background-square"></rect><defs data-v-fde0c5aa=""><!----></defs><g data-v-fde0c5aa="" id="948d3b7a-72d5-45cb-9fc9-29e31aa19895" fill="#13182E"><path d=""></path></g><defs data-v-fde0c5aa=""><linearGradient data-v-fde0c5aa="" gradientTransform="rotate(25)" id="47f6fcb7-92ce-4ee4-ae08-3d947839459c" x1="0%" y1="0%" x2="100%" y2="0%"><stop data-v-fde0c5aa="" offset="0%" stop-color="#0D2545" stop-opacity="1"></stop><stop data-v-fde0c5aa="" offset="100%" stop-color="#A21F44" stop-opacity="1"></stop></linearGradient></defs><g data-v-fde0c5aa="" id="2ab946a8-02c1-4652-bf79-bc30dd4f92ae" stroke="none" fill="url(#47f6fcb7-92ce-4ee4-ae08-3d947839459c)"><path d="M63.281 61.867V31.193a1 1 0 1 0-2 0v28.674l-6.187-6.187V31.193a1 1 0 1 0-2 0V51.68l-6.188-6.188V31.193a1 1 0 1 0-2 0v12.3l-6.187-6.188v-6.112a1 1 0 1 0-2 0v4.112L31.9 30.486a1 1 0 1 0-1.414 1.414l6.233 6.233v30.674a1 1 0 1 0 2 0V40.133l6.187 6.187v22.487a1 1 0 1 0 2 0V48.32l6.188 6.188v14.299a1 1 0 1 0 2 0v-12.3l6.187 6.188v6.112a1 1 0 1 0 2 0v-4.112l4.819 4.819a.997.997 0 0 0 1.414 0 1 1 0 0 0 0-1.414l-6.233-6.233z"></path><path d="M50 9.974C27.944 9.974 10 27.93 10 50s17.944 40.026 40 40.026S90 72.07 90 50 72.056 9.974 50 9.974zm0 78.052c-20.953 0-38-17.058-38-38.026s17.047-38.026 38-38.026S88 29.032 88 50 70.953 88.026 50 88.026z"></path></g><!----></svg>