<svg data-v-423bf9ae="" xmlns="http://www.w3.org/2000/svg" viewBox="0 0 NaN 90" class="iconLeft"><!----><!----><!----><g data-v-423bf9ae="" id="58f2426a-e33f-4d14-9774-43edc7418593" fill="black" transform="matrix(Infinity,0,0,Infinity,0,45)"><path d=""></path></g><!----><g data-v-423bf9ae="" id="00c9e791-0013-4563-b846-2dbc340a5051" transform="matrix(1.1242691975735988,0,0,1.1242691975735988,-11.213459878679942,-10.239460973754781)" stroke="none" fill="black"><path d="M63.281 61.867V31.193a1 1 0 1 0-2 0v28.674l-6.187-6.187V31.193a1 1 0 1 0-2 0V51.68l-6.188-6.188V31.193a1 1 0 1 0-2 0v12.3l-6.187-6.188v-6.112a1 1 0 1 0-2 0v4.112L31.9 30.486a1 1 0 1 0-1.414 1.414l6.233 6.233v30.674a1 1 0 1 0 2 0V40.133l6.187 6.187v22.487a1 1 0 1 0 2 0V48.32l6.188 6.188v14.299a1 1 0 1 0 2 0v-12.3l6.187 6.188v6.112a1 1 0 1 0 2 0v-4.112l4.819 4.819a.997.997 0 0 0 1.414 0 1 1 0 0 0 0-1.414l-6.233-6.233z"></path><path d="M50 9.974C27.944 9.974 10 27.93 10 50s17.944 40.026 40 40.026S90 72.07 90 50 72.056 9.974 50 9.974zm0 78.052c-20.953 0-38-17.058-38-38.026s17.047-38.026 38-38.026S88 29.032 88 50 70.953 88.026 50 88.026z"></path></g><!----></svg>